<svg width="40" height="40" viewBox="0 0 40 40" fill="none" xmlns="http://www.w3.org/2000/svg">
<path d="M20 36.6667C22.6365 36.6667 24.7963 34.6262 24.9863 32.0383C26.9507 33.7338 29.9208 33.6493 31.7852 31.7852C33.6493 29.9208 33.7337 26.9508 32.0382 24.9863C34.6262 24.7963 36.6667 22.6365 36.6667 20C36.6667 17.3635 34.6262 15.2037 32.0383 15.0136C33.7338 13.0493 33.6493 10.0791 31.7852 8.21491C29.9208 6.35064 26.9508 6.26628 24.9863 7.96181C24.7963 5.37389 22.6365 3.33334 20 3.33334C17.3635 3.33334 15.2037 5.37386 15.0136 7.96174C13.0493 6.26624 10.0792 6.35061 8.21491 8.21486C6.35064 10.0791 6.26629 13.0493 7.96181 15.0136C5.37389 15.2037 3.33334 17.3635 3.33334 20C3.33334 22.6365 5.37384 24.7963 7.96173 24.9863C6.26624 26.9507 6.35063 29.9208 8.21486 31.7852C10.0791 33.6493 13.0493 33.7337 15.0136 32.0382C15.2037 34.6262 17.3635 36.6667 20 36.6667Z" stroke="#BE6D21" stroke-width="3" stroke-linecap="square"/>
<path d="M20 23.3333C18.159 23.3333 16.6667 21.841 16.6667 20C16.6667 18.159 18.159 16.6667 20 16.6667C21.841 16.6667 23.3333 18.159 23.3333 20C23.3333 21.841 21.841 23.3333 20 23.3333Z" stroke="#BE6D21" stroke-width="3" stroke-linecap="square"/>
</svg>
