<svg width="56" height="56" viewBox="0 0 56 56" fill="none" xmlns="http://www.w3.org/2000/svg">
<path d="M56 28C56 43.47 43.47 56 28 56C12.53 56 0 43.47 0 28C0 12.53 12.53 0 28 0C43.47 0 56 12.53 56 28ZM22.876 42.77C35.294 42.77 42.084 32.48 42.084 23.562C42.084 23.268 42.084 22.974 42.07 22.694C43.386 21.742 44.534 20.552 45.444 19.194C44.24 19.726 42.938 20.09 41.566 20.258C42.966 19.418 44.03 18.102 44.534 16.52C43.232 17.29 41.79 17.85 40.25 18.158C39.018 16.842 37.268 16.03 35.322 16.03C31.598 16.03 28.574 19.054 28.574 22.778C28.574 23.31 28.63 23.828 28.756 24.318C23.142 24.038 18.172 21.35 14.84 17.262C14.266 18.256 13.93 19.418 13.93 20.65C13.93 22.988 15.12 25.06 16.94 26.264C15.834 26.236 14.798 25.928 13.888 25.424C13.888 25.452 13.888 25.48 13.888 25.508C13.888 28.784 16.212 31.5 19.306 32.13C18.746 32.284 18.144 32.368 17.528 32.368C17.094 32.368 16.674 32.326 16.254 32.242C17.108 34.93 19.6 36.876 22.554 36.932C20.244 38.738 17.332 39.816 14.168 39.816C13.622 39.816 13.09 39.788 12.558 39.718C15.512 41.65 19.068 42.77 22.876 42.77Z" fill="white"/>
</svg>
